# xmcd
#
# Track frame offsets: 
#        150
#        14229
#        38601
#        55826
#        67607
#        88251
#        107732
#        121877
#        139245
#        158731
#        179465
#        198048
#        217350
#        234790
#        269631
#
# Disc length: 4787 seconds
#
# Revision: 2
# Processed by: cddbd v1.5.2PL0 Copyright (c) Steve Scherf et al.
# Submitted via: ExactAudioCopy v1.0b3
#
DISCID=d412b10f
DTITLE=La Casa Azul - La Nueva Yma Sumac
DYEAR=2009
DGENRE=Pop
TTITLE0=La Nneva Yma Sumac
TTITLE1=Die Sexuelle Revolution
TTITLE2=Surf up and down
TTITLE3=I want you back
TTITLE4=Sexual Revolution (feat. Yeongene on vocals)
TTITLE5=Love is in the air
TTITLE6=La nueva Yma Sumac (ニュ-。ユマ。スマック) (feat. The Aprils)
TTITLE7=Señora
TTITLE8=Bad guys (feat. Duglas T. Stewart on vocals)
TTITLE9=Sexual Revolution
TTITLE10=El momento más feliz (directo)
TTITLE11=Superguay (directo)
TTITLE12=Chicos Malos (directo)
TTITLE13=La Revolución Sexual (directo)
TTITLE14=DATA (La nueva Yma Sumac Normal - Japonés)
EXTD=
EXTT0=
EXTT1=
EXTT2=
EXTT3=
EXTT4=
EXTT5=
EXTT6=
EXTT7=
EXTT8=
EXTT9=
EXTT10=
EXTT11=
EXTT12=
EXTT13=
EXTT14=
PLAYORDER=
